<mxfile host="app.diagrams.net" modified="2023-05-28T14:11:26.222Z" agent="Mozilla/5.0 (Windows NT 10.0; Win64; x64) AppleWebKit/537.36 (KHTML, like Gecko) Chrome/113.0.0.0 Safari/537.36" etag="Rb4jeicq97uDE0JZ-1x4" version="21.3.4" type="device" pages="2">
  <diagram id="C5RBs43oDa-KdzZeNtuy" name="Ej1">
    <mxGraphModel dx="1432" dy="1795" grid="1" gridSize="10" guides="1" tooltips="1" connect="1" arrows="1" fold="1" page="1" pageScale="1" pageWidth="827" pageHeight="1169" math="0" shadow="0">
      <root>
        <mxCell id="WIyWlLk6GJQsqaUBKTNV-0" />
        <mxCell id="WIyWlLk6GJQsqaUBKTNV-1" parent="WIyWlLk6GJQsqaUBKTNV-0" />
        <mxCell id="M5Yx33Il3OhWRiJHfLlr-0" value="" style="endArrow=none;dashed=1;html=1;dashPattern=1 3;strokeWidth=2;rounded=0;" edge="1" parent="WIyWlLk6GJQsqaUBKTNV-1">
          <mxGeometry width="50" height="50" relative="1" as="geometry">
            <mxPoint y="240" as="sourcePoint" />
            <mxPoint x="1150" y="240" as="targetPoint" />
          </mxGeometry>
        </mxCell>
        <mxCell id="M5Yx33Il3OhWRiJHfLlr-1" value="" style="endArrow=none;dashed=1;html=1;dashPattern=1 3;strokeWidth=2;rounded=0;" edge="1" parent="WIyWlLk6GJQsqaUBKTNV-1">
          <mxGeometry width="50" height="50" relative="1" as="geometry">
            <mxPoint y="520" as="sourcePoint" />
            <mxPoint x="1150" y="520" as="targetPoint" />
          </mxGeometry>
        </mxCell>
        <mxCell id="M5Yx33Il3OhWRiJHfLlr-2" value="Empleado" style="text;html=1;strokeColor=none;fillColor=none;align=center;verticalAlign=middle;whiteSpace=wrap;rounded=0;rotation=-90;" vertex="1" parent="WIyWlLk6GJQsqaUBKTNV-1">
          <mxGeometry x="-85" y="355" width="150" height="30" as="geometry" />
        </mxCell>
        <mxCell id="M5Yx33Il3OhWRiJHfLlr-8" style="edgeStyle=orthogonalEdgeStyle;rounded=0;orthogonalLoop=1;jettySize=auto;html=1;entryX=0.5;entryY=0;entryDx=0;entryDy=0;" edge="1" parent="WIyWlLk6GJQsqaUBKTNV-1" source="M5Yx33Il3OhWRiJHfLlr-3" target="M5Yx33Il3OhWRiJHfLlr-6">
          <mxGeometry relative="1" as="geometry" />
        </mxCell>
        <mxCell id="M5Yx33Il3OhWRiJHfLlr-3" value="Enviar Solicitud" style="rounded=1;whiteSpace=wrap;html=1;" vertex="1" parent="WIyWlLk6GJQsqaUBKTNV-1">
          <mxGeometry x="150" y="340" width="120" height="60" as="geometry" />
        </mxCell>
        <mxCell id="M5Yx33Il3OhWRiJHfLlr-5" style="edgeStyle=orthogonalEdgeStyle;rounded=0;orthogonalLoop=1;jettySize=auto;html=1;" edge="1" parent="WIyWlLk6GJQsqaUBKTNV-1" source="M5Yx33Il3OhWRiJHfLlr-4" target="M5Yx33Il3OhWRiJHfLlr-3">
          <mxGeometry relative="1" as="geometry" />
        </mxCell>
        <mxCell id="M5Yx33Il3OhWRiJHfLlr-4" value="" style="ellipse;whiteSpace=wrap;html=1;aspect=fixed;fillColor=#d5e8d4;strokeColor=#82b366;" vertex="1" parent="WIyWlLk6GJQsqaUBKTNV-1">
          <mxGeometry x="40" y="345" width="50" height="50" as="geometry" />
        </mxCell>
        <mxCell id="M5Yx33Il3OhWRiJHfLlr-10" style="edgeStyle=orthogonalEdgeStyle;rounded=0;orthogonalLoop=1;jettySize=auto;html=1;" edge="1" parent="WIyWlLk6GJQsqaUBKTNV-1" source="M5Yx33Il3OhWRiJHfLlr-6" target="M5Yx33Il3OhWRiJHfLlr-9">
          <mxGeometry relative="1" as="geometry" />
        </mxCell>
        <mxCell id="M5Yx33Il3OhWRiJHfLlr-6" value="Evaluacion Solicitud" style="rounded=1;whiteSpace=wrap;html=1;" vertex="1" parent="WIyWlLk6GJQsqaUBKTNV-1">
          <mxGeometry x="150" y="580" width="120" height="60" as="geometry" />
        </mxCell>
        <mxCell id="M5Yx33Il3OhWRiJHfLlr-7" value="Jefe" style="text;html=1;strokeColor=none;fillColor=none;align=center;verticalAlign=middle;whiteSpace=wrap;rounded=0;rotation=-90;" vertex="1" parent="WIyWlLk6GJQsqaUBKTNV-1">
          <mxGeometry x="-90" y="630" width="150" height="30" as="geometry" />
        </mxCell>
        <mxCell id="M5Yx33Il3OhWRiJHfLlr-13" style="edgeStyle=orthogonalEdgeStyle;rounded=0;orthogonalLoop=1;jettySize=auto;html=1;" edge="1" parent="WIyWlLk6GJQsqaUBKTNV-1" source="M5Yx33Il3OhWRiJHfLlr-9" target="M5Yx33Il3OhWRiJHfLlr-12">
          <mxGeometry relative="1" as="geometry" />
        </mxCell>
        <mxCell id="M5Yx33Il3OhWRiJHfLlr-21" value="SI" style="edgeLabel;html=1;align=center;verticalAlign=middle;resizable=0;points=[];" vertex="1" connectable="0" parent="M5Yx33Il3OhWRiJHfLlr-13">
          <mxGeometry x="-0.812" y="-3" relative="1" as="geometry">
            <mxPoint as="offset" />
          </mxGeometry>
        </mxCell>
        <mxCell id="M5Yx33Il3OhWRiJHfLlr-30" style="edgeStyle=orthogonalEdgeStyle;rounded=0;orthogonalLoop=1;jettySize=auto;html=1;exitX=1;exitY=0.5;exitDx=0;exitDy=0;entryX=0.5;entryY=1;entryDx=0;entryDy=0;" edge="1" parent="WIyWlLk6GJQsqaUBKTNV-1" source="M5Yx33Il3OhWRiJHfLlr-9" target="M5Yx33Il3OhWRiJHfLlr-26">
          <mxGeometry relative="1" as="geometry" />
        </mxCell>
        <mxCell id="M5Yx33Il3OhWRiJHfLlr-31" value="NO" style="edgeLabel;html=1;align=center;verticalAlign=middle;resizable=0;points=[];" vertex="1" connectable="0" parent="M5Yx33Il3OhWRiJHfLlr-30">
          <mxGeometry x="-0.7388" y="2" relative="1" as="geometry">
            <mxPoint as="offset" />
          </mxGeometry>
        </mxCell>
        <mxCell id="M5Yx33Il3OhWRiJHfLlr-9" value="Aprueba?" style="rhombus;whiteSpace=wrap;html=1;" vertex="1" parent="WIyWlLk6GJQsqaUBKTNV-1">
          <mxGeometry x="414" y="580" width="60" height="60" as="geometry" />
        </mxCell>
        <mxCell id="M5Yx33Il3OhWRiJHfLlr-11" value="Jefe Area" style="text;html=1;strokeColor=none;fillColor=none;align=center;verticalAlign=middle;whiteSpace=wrap;rounded=0;rotation=-90;" vertex="1" parent="WIyWlLk6GJQsqaUBKTNV-1">
          <mxGeometry x="-90" y="120" width="150" height="30" as="geometry" />
        </mxCell>
        <mxCell id="M5Yx33Il3OhWRiJHfLlr-16" style="edgeStyle=orthogonalEdgeStyle;rounded=0;orthogonalLoop=1;jettySize=auto;html=1;entryX=0;entryY=0.5;entryDx=0;entryDy=0;" edge="1" parent="WIyWlLk6GJQsqaUBKTNV-1" source="M5Yx33Il3OhWRiJHfLlr-12" target="M5Yx33Il3OhWRiJHfLlr-15">
          <mxGeometry relative="1" as="geometry" />
        </mxCell>
        <mxCell id="M5Yx33Il3OhWRiJHfLlr-12" value="Evaluacion Solicitud" style="rounded=1;whiteSpace=wrap;html=1;" vertex="1" parent="WIyWlLk6GJQsqaUBKTNV-1">
          <mxGeometry x="384" y="105" width="120" height="60" as="geometry" />
        </mxCell>
        <mxCell id="M5Yx33Il3OhWRiJHfLlr-14" value="" style="endArrow=none;dashed=1;html=1;dashPattern=1 3;strokeWidth=2;rounded=0;" edge="1" parent="WIyWlLk6GJQsqaUBKTNV-1">
          <mxGeometry width="50" height="50" relative="1" as="geometry">
            <mxPoint y="-1" as="sourcePoint" />
            <mxPoint x="1150" y="-1" as="targetPoint" />
          </mxGeometry>
        </mxCell>
        <mxCell id="M5Yx33Il3OhWRiJHfLlr-19" style="edgeStyle=orthogonalEdgeStyle;rounded=0;orthogonalLoop=1;jettySize=auto;html=1;entryX=0;entryY=0.5;entryDx=0;entryDy=0;" edge="1" parent="WIyWlLk6GJQsqaUBKTNV-1" source="M5Yx33Il3OhWRiJHfLlr-15" target="M5Yx33Il3OhWRiJHfLlr-17">
          <mxGeometry relative="1" as="geometry">
            <Array as="points">
              <mxPoint x="650" y="-100" />
            </Array>
          </mxGeometry>
        </mxCell>
        <mxCell id="M5Yx33Il3OhWRiJHfLlr-20" value="SI" style="edgeLabel;html=1;align=center;verticalAlign=middle;resizable=0;points=[];" vertex="1" connectable="0" parent="M5Yx33Il3OhWRiJHfLlr-19">
          <mxGeometry x="-0.7123" y="-1" relative="1" as="geometry">
            <mxPoint as="offset" />
          </mxGeometry>
        </mxCell>
        <mxCell id="M5Yx33Il3OhWRiJHfLlr-27" style="edgeStyle=orthogonalEdgeStyle;rounded=0;orthogonalLoop=1;jettySize=auto;html=1;exitX=1;exitY=0.5;exitDx=0;exitDy=0;entryX=0;entryY=0.5;entryDx=0;entryDy=0;" edge="1" parent="WIyWlLk6GJQsqaUBKTNV-1" source="M5Yx33Il3OhWRiJHfLlr-15" target="M5Yx33Il3OhWRiJHfLlr-26">
          <mxGeometry relative="1" as="geometry" />
        </mxCell>
        <mxCell id="M5Yx33Il3OhWRiJHfLlr-32" value="NO" style="edgeLabel;html=1;align=center;verticalAlign=middle;resizable=0;points=[];" vertex="1" connectable="0" parent="M5Yx33Il3OhWRiJHfLlr-27">
          <mxGeometry x="-0.683" y="-3" relative="1" as="geometry">
            <mxPoint y="-3" as="offset" />
          </mxGeometry>
        </mxCell>
        <mxCell id="M5Yx33Il3OhWRiJHfLlr-15" value="Aprueba?" style="rhombus;whiteSpace=wrap;html=1;" vertex="1" parent="WIyWlLk6GJQsqaUBKTNV-1">
          <mxGeometry x="620" y="105" width="60" height="60" as="geometry" />
        </mxCell>
        <mxCell id="M5Yx33Il3OhWRiJHfLlr-28" style="edgeStyle=orthogonalEdgeStyle;rounded=0;orthogonalLoop=1;jettySize=auto;html=1;exitX=1;exitY=0.5;exitDx=0;exitDy=0;entryX=0.5;entryY=0;entryDx=0;entryDy=0;" edge="1" parent="WIyWlLk6GJQsqaUBKTNV-1" source="M5Yx33Il3OhWRiJHfLlr-17" target="M5Yx33Il3OhWRiJHfLlr-26">
          <mxGeometry relative="1" as="geometry" />
        </mxCell>
        <mxCell id="M5Yx33Il3OhWRiJHfLlr-17" value="Procesar Solicitud" style="rounded=1;whiteSpace=wrap;html=1;" vertex="1" parent="WIyWlLk6GJQsqaUBKTNV-1">
          <mxGeometry x="730" y="-130" width="120" height="60" as="geometry" />
        </mxCell>
        <mxCell id="M5Yx33Il3OhWRiJHfLlr-22" value="RRHH" style="text;html=1;strokeColor=none;fillColor=none;align=center;verticalAlign=middle;whiteSpace=wrap;rounded=0;rotation=-90;" vertex="1" parent="WIyWlLk6GJQsqaUBKTNV-1">
          <mxGeometry x="-80" y="-120" width="150" height="30" as="geometry" />
        </mxCell>
        <mxCell id="M5Yx33Il3OhWRiJHfLlr-25" style="edgeStyle=orthogonalEdgeStyle;rounded=0;orthogonalLoop=1;jettySize=auto;html=1;" edge="1" parent="WIyWlLk6GJQsqaUBKTNV-1" source="M5Yx33Il3OhWRiJHfLlr-23" target="M5Yx33Il3OhWRiJHfLlr-24">
          <mxGeometry relative="1" as="geometry" />
        </mxCell>
        <mxCell id="M5Yx33Il3OhWRiJHfLlr-23" value="Notificar resolucion" style="rounded=1;whiteSpace=wrap;html=1;" vertex="1" parent="WIyWlLk6GJQsqaUBKTNV-1">
          <mxGeometry x="1000" y="345" width="120" height="60" as="geometry" />
        </mxCell>
        <mxCell id="M5Yx33Il3OhWRiJHfLlr-24" value="" style="ellipse;whiteSpace=wrap;html=1;aspect=fixed;fillColor=#f8cecc;strokeColor=#b85450;" vertex="1" parent="WIyWlLk6GJQsqaUBKTNV-1">
          <mxGeometry x="1200" y="345" width="60" height="60" as="geometry" />
        </mxCell>
        <mxCell id="M5Yx33Il3OhWRiJHfLlr-29" style="edgeStyle=orthogonalEdgeStyle;rounded=0;orthogonalLoop=1;jettySize=auto;html=1;entryX=0;entryY=0.5;entryDx=0;entryDy=0;" edge="1" parent="WIyWlLk6GJQsqaUBKTNV-1" source="M5Yx33Il3OhWRiJHfLlr-26" target="M5Yx33Il3OhWRiJHfLlr-23">
          <mxGeometry relative="1" as="geometry" />
        </mxCell>
        <mxCell id="M5Yx33Il3OhWRiJHfLlr-26" value="Unir Resoluciones" style="rhombus;whiteSpace=wrap;html=1;" vertex="1" parent="WIyWlLk6GJQsqaUBKTNV-1">
          <mxGeometry x="890" y="347.5" width="60" height="55" as="geometry" />
        </mxCell>
      </root>
    </mxGraphModel>
  </diagram>
  <diagram id="HgeSUa7vxCnIiXTkD64b" name="Ej2">
    <mxGraphModel dx="1221" dy="636" grid="1" gridSize="10" guides="1" tooltips="1" connect="1" arrows="1" fold="1" page="1" pageScale="1" pageWidth="827" pageHeight="1169" math="0" shadow="0">
      <root>
        <mxCell id="0" />
        <mxCell id="1" parent="0" />
        <mxCell id="Sdo2y6w5XIIUt7BQ4_8k-16" style="edgeStyle=orthogonalEdgeStyle;rounded=0;orthogonalLoop=1;jettySize=auto;html=1;entryX=0;entryY=0.5;entryDx=0;entryDy=0;" edge="1" parent="1" source="Sdo2y6w5XIIUt7BQ4_8k-1" target="Sdo2y6w5XIIUt7BQ4_8k-4">
          <mxGeometry relative="1" as="geometry" />
        </mxCell>
        <mxCell id="Sdo2y6w5XIIUt7BQ4_8k-1" value="" style="ellipse;whiteSpace=wrap;html=1;aspect=fixed;fillColor=#d5e8d4;strokeColor=#82b366;" vertex="1" parent="1">
          <mxGeometry x="70" y="345" width="50" height="50" as="geometry" />
        </mxCell>
        <mxCell id="Sdo2y6w5XIIUt7BQ4_8k-14" style="edgeStyle=orthogonalEdgeStyle;rounded=0;orthogonalLoop=1;jettySize=auto;html=1;entryX=0;entryY=0.5;entryDx=0;entryDy=0;" edge="1" parent="1" source="Sdo2y6w5XIIUt7BQ4_8k-4" target="Sdo2y6w5XIIUt7BQ4_8k-5">
          <mxGeometry relative="1" as="geometry" />
        </mxCell>
        <mxCell id="Sdo2y6w5XIIUt7BQ4_8k-4" value="Seleccion candidato" style="rounded=1;whiteSpace=wrap;html=1;" vertex="1" parent="1">
          <mxGeometry x="200" y="340" width="120" height="60" as="geometry" />
        </mxCell>
        <mxCell id="Sdo2y6w5XIIUt7BQ4_8k-10" style="edgeStyle=orthogonalEdgeStyle;rounded=0;orthogonalLoop=1;jettySize=auto;html=1;entryX=0;entryY=0.5;entryDx=0;entryDy=0;" edge="1" parent="1" source="Sdo2y6w5XIIUt7BQ4_8k-5" target="Sdo2y6w5XIIUt7BQ4_8k-8">
          <mxGeometry relative="1" as="geometry" />
        </mxCell>
        <mxCell id="Sdo2y6w5XIIUt7BQ4_8k-5" value="Entrevista introductoria" style="rounded=1;whiteSpace=wrap;html=1;" vertex="1" parent="1">
          <mxGeometry x="360" y="180" width="120" height="60" as="geometry" />
        </mxCell>
        <mxCell id="Sdo2y6w5XIIUt7BQ4_8k-12" style="edgeStyle=orthogonalEdgeStyle;rounded=0;orthogonalLoop=1;jettySize=auto;html=1;entryX=0;entryY=0.5;entryDx=0;entryDy=0;" edge="1" parent="1" source="Sdo2y6w5XIIUt7BQ4_8k-6" target="Sdo2y6w5XIIUt7BQ4_8k-9">
          <mxGeometry relative="1" as="geometry" />
        </mxCell>
        <mxCell id="Sdo2y6w5XIIUt7BQ4_8k-6" value="Entrevista tecnica" style="rounded=1;whiteSpace=wrap;html=1;" vertex="1" parent="1">
          <mxGeometry x="520" y="500" width="120" height="60" as="geometry" />
        </mxCell>
        <mxCell id="Sdo2y6w5XIIUt7BQ4_8k-20" style="edgeStyle=orthogonalEdgeStyle;rounded=0;orthogonalLoop=1;jettySize=auto;html=1;entryX=0;entryY=0.5;entryDx=0;entryDy=0;" edge="1" parent="1" source="Sdo2y6w5XIIUt7BQ4_8k-7" target="Sdo2y6w5XIIUt7BQ4_8k-18">
          <mxGeometry relative="1" as="geometry" />
        </mxCell>
        <mxCell id="Sdo2y6w5XIIUt7BQ4_8k-7" value="Entrevista psicologica" style="rounded=1;whiteSpace=wrap;html=1;" vertex="1" parent="1">
          <mxGeometry x="680" y="680" width="120" height="60" as="geometry" />
        </mxCell>
        <mxCell id="Sdo2y6w5XIIUt7BQ4_8k-11" value="SI" style="edgeStyle=orthogonalEdgeStyle;rounded=0;orthogonalLoop=1;jettySize=auto;html=1;entryX=0.5;entryY=0;entryDx=0;entryDy=0;" edge="1" parent="1" source="Sdo2y6w5XIIUt7BQ4_8k-8" target="Sdo2y6w5XIIUt7BQ4_8k-6">
          <mxGeometry relative="1" as="geometry" />
        </mxCell>
        <mxCell id="Sdo2y6w5XIIUt7BQ4_8k-35" style="edgeStyle=orthogonalEdgeStyle;rounded=0;orthogonalLoop=1;jettySize=auto;html=1;" edge="1" parent="1" source="Sdo2y6w5XIIUt7BQ4_8k-8" target="Sdo2y6w5XIIUt7BQ4_8k-30">
          <mxGeometry relative="1" as="geometry" />
        </mxCell>
        <mxCell id="Sdo2y6w5XIIUt7BQ4_8k-39" value="NO" style="edgeLabel;html=1;align=center;verticalAlign=middle;resizable=0;points=[];" vertex="1" connectable="0" parent="Sdo2y6w5XIIUt7BQ4_8k-35">
          <mxGeometry x="-0.6867" y="3" relative="1" as="geometry">
            <mxPoint as="offset" />
          </mxGeometry>
        </mxCell>
        <mxCell id="Sdo2y6w5XIIUt7BQ4_8k-8" value="Aprobo?" style="rhombus;whiteSpace=wrap;html=1;" vertex="1" parent="1">
          <mxGeometry x="550" y="180" width="60" height="60" as="geometry" />
        </mxCell>
        <mxCell id="Sdo2y6w5XIIUt7BQ4_8k-13" value="SI" style="edgeStyle=orthogonalEdgeStyle;rounded=0;orthogonalLoop=1;jettySize=auto;html=1;" edge="1" parent="1" source="Sdo2y6w5XIIUt7BQ4_8k-9" target="Sdo2y6w5XIIUt7BQ4_8k-7">
          <mxGeometry relative="1" as="geometry" />
        </mxCell>
        <mxCell id="Sdo2y6w5XIIUt7BQ4_8k-34" style="edgeStyle=orthogonalEdgeStyle;rounded=0;orthogonalLoop=1;jettySize=auto;html=1;entryX=0;entryY=0.5;entryDx=0;entryDy=0;" edge="1" parent="1" source="Sdo2y6w5XIIUt7BQ4_8k-9" target="Sdo2y6w5XIIUt7BQ4_8k-30">
          <mxGeometry relative="1" as="geometry">
            <Array as="points">
              <mxPoint x="810" y="530" />
              <mxPoint x="810" y="280" />
            </Array>
          </mxGeometry>
        </mxCell>
        <mxCell id="Sdo2y6w5XIIUt7BQ4_8k-36" value="NO" style="edgeLabel;html=1;align=center;verticalAlign=middle;resizable=0;points=[];" vertex="1" connectable="0" parent="Sdo2y6w5XIIUt7BQ4_8k-34">
          <mxGeometry x="-0.7683" relative="1" as="geometry">
            <mxPoint as="offset" />
          </mxGeometry>
        </mxCell>
        <mxCell id="Sdo2y6w5XIIUt7BQ4_8k-9" value="Aprobo?" style="rhombus;whiteSpace=wrap;html=1;" vertex="1" parent="1">
          <mxGeometry x="710" y="500" width="60" height="60" as="geometry" />
        </mxCell>
        <mxCell id="Sdo2y6w5XIIUt7BQ4_8k-22" style="edgeStyle=orthogonalEdgeStyle;rounded=0;orthogonalLoop=1;jettySize=auto;html=1;entryX=0;entryY=0.5;entryDx=0;entryDy=0;" edge="1" parent="1" source="Sdo2y6w5XIIUt7BQ4_8k-15" target="Sdo2y6w5XIIUt7BQ4_8k-21">
          <mxGeometry relative="1" as="geometry" />
        </mxCell>
        <mxCell id="Sdo2y6w5XIIUt7BQ4_8k-15" value="Presentacion proyecto" style="rounded=1;whiteSpace=wrap;html=1;" vertex="1" parent="1">
          <mxGeometry x="960" y="340" width="120" height="60" as="geometry" />
        </mxCell>
        <mxCell id="Sdo2y6w5XIIUt7BQ4_8k-19" style="edgeStyle=orthogonalEdgeStyle;rounded=0;orthogonalLoop=1;jettySize=auto;html=1;exitX=0.5;exitY=0;exitDx=0;exitDy=0;entryX=0;entryY=0.5;entryDx=0;entryDy=0;" edge="1" parent="1" source="Sdo2y6w5XIIUt7BQ4_8k-18" target="Sdo2y6w5XIIUt7BQ4_8k-15">
          <mxGeometry relative="1" as="geometry">
            <Array as="points">
              <mxPoint x="890" y="370" />
            </Array>
          </mxGeometry>
        </mxCell>
        <mxCell id="Sdo2y6w5XIIUt7BQ4_8k-38" value="SI" style="edgeLabel;html=1;align=center;verticalAlign=middle;resizable=0;points=[];" vertex="1" connectable="0" parent="Sdo2y6w5XIIUt7BQ4_8k-19">
          <mxGeometry x="-0.5211" relative="1" as="geometry">
            <mxPoint as="offset" />
          </mxGeometry>
        </mxCell>
        <mxCell id="Sdo2y6w5XIIUt7BQ4_8k-33" style="edgeStyle=orthogonalEdgeStyle;rounded=0;orthogonalLoop=1;jettySize=auto;html=1;entryX=0;entryY=0.5;entryDx=0;entryDy=0;" edge="1" parent="1" source="Sdo2y6w5XIIUt7BQ4_8k-18" target="Sdo2y6w5XIIUt7BQ4_8k-30">
          <mxGeometry relative="1" as="geometry">
            <Array as="points">
              <mxPoint x="1280" y="710" />
              <mxPoint x="1280" y="280" />
            </Array>
          </mxGeometry>
        </mxCell>
        <mxCell id="Sdo2y6w5XIIUt7BQ4_8k-37" value="NO" style="edgeLabel;html=1;align=center;verticalAlign=middle;resizable=0;points=[];" vertex="1" connectable="0" parent="Sdo2y6w5XIIUt7BQ4_8k-33">
          <mxGeometry x="-0.5004" relative="1" as="geometry">
            <mxPoint as="offset" />
          </mxGeometry>
        </mxCell>
        <mxCell id="Sdo2y6w5XIIUt7BQ4_8k-18" value="Aprobo?" style="rhombus;whiteSpace=wrap;html=1;" vertex="1" parent="1">
          <mxGeometry x="860" y="680" width="60" height="60" as="geometry" />
        </mxCell>
        <mxCell id="Sdo2y6w5XIIUt7BQ4_8k-24" style="edgeStyle=orthogonalEdgeStyle;rounded=0;orthogonalLoop=1;jettySize=auto;html=1;entryX=0;entryY=0.5;entryDx=0;entryDy=0;" edge="1" parent="1" source="Sdo2y6w5XIIUt7BQ4_8k-21" target="Sdo2y6w5XIIUt7BQ4_8k-23">
          <mxGeometry relative="1" as="geometry" />
        </mxCell>
        <mxCell id="Sdo2y6w5XIIUt7BQ4_8k-21" value="Evaluacion proyecto" style="rounded=1;whiteSpace=wrap;html=1;" vertex="1" parent="1">
          <mxGeometry x="1121" y="500" width="120" height="60" as="geometry" />
        </mxCell>
        <mxCell id="Sdo2y6w5XIIUt7BQ4_8k-27" value="Si" style="edgeStyle=orthogonalEdgeStyle;rounded=0;orthogonalLoop=1;jettySize=auto;html=1;" edge="1" parent="1" source="Sdo2y6w5XIIUt7BQ4_8k-23" target="Sdo2y6w5XIIUt7BQ4_8k-40">
          <mxGeometry relative="1" as="geometry">
            <mxPoint x="1570" y="530" as="targetPoint" />
          </mxGeometry>
        </mxCell>
        <mxCell id="Sdo2y6w5XIIUt7BQ4_8k-32" style="edgeStyle=orthogonalEdgeStyle;rounded=0;orthogonalLoop=1;jettySize=auto;html=1;entryX=0.5;entryY=1;entryDx=0;entryDy=0;" edge="1" parent="1" source="Sdo2y6w5XIIUt7BQ4_8k-23" target="Sdo2y6w5XIIUt7BQ4_8k-30">
          <mxGeometry relative="1" as="geometry" />
        </mxCell>
        <mxCell id="Sdo2y6w5XIIUt7BQ4_8k-23" value="Contratar?" style="rhombus;whiteSpace=wrap;html=1;" vertex="1" parent="1">
          <mxGeometry x="1340" y="500" width="60" height="60" as="geometry" />
        </mxCell>
        <mxCell id="Sdo2y6w5XIIUt7BQ4_8k-31" style="edgeStyle=orthogonalEdgeStyle;rounded=0;orthogonalLoop=1;jettySize=auto;html=1;entryX=0;entryY=0.5;entryDx=0;entryDy=0;" edge="1" parent="1" source="Sdo2y6w5XIIUt7BQ4_8k-30" target="Sdo2y6w5XIIUt7BQ4_8k-41">
          <mxGeometry relative="1" as="geometry">
            <mxPoint x="1570" y="280" as="targetPoint" />
          </mxGeometry>
        </mxCell>
        <mxCell id="Sdo2y6w5XIIUt7BQ4_8k-30" value="Unir negativa" style="rhombus;whiteSpace=wrap;html=1;" vertex="1" parent="1">
          <mxGeometry x="1340" y="250" width="60" height="60" as="geometry" />
        </mxCell>
        <mxCell id="Sdo2y6w5XIIUt7BQ4_8k-46" style="edgeStyle=orthogonalEdgeStyle;rounded=0;orthogonalLoop=1;jettySize=auto;html=1;entryX=0.5;entryY=1;entryDx=0;entryDy=0;" edge="1" parent="1" source="Sdo2y6w5XIIUt7BQ4_8k-40" target="Sdo2y6w5XIIUt7BQ4_8k-42">
          <mxGeometry relative="1" as="geometry" />
        </mxCell>
        <mxCell id="Sdo2y6w5XIIUt7BQ4_8k-40" value="Contratar" style="rounded=1;whiteSpace=wrap;html=1;" vertex="1" parent="1">
          <mxGeometry x="1580" y="500" width="120" height="60" as="geometry" />
        </mxCell>
        <mxCell id="Sdo2y6w5XIIUt7BQ4_8k-45" style="edgeStyle=orthogonalEdgeStyle;rounded=0;orthogonalLoop=1;jettySize=auto;html=1;entryX=0.5;entryY=0;entryDx=0;entryDy=0;" edge="1" parent="1" source="Sdo2y6w5XIIUt7BQ4_8k-41" target="Sdo2y6w5XIIUt7BQ4_8k-42">
          <mxGeometry relative="1" as="geometry" />
        </mxCell>
        <mxCell id="Sdo2y6w5XIIUt7BQ4_8k-41" value="Eliminar proceso" style="rounded=1;whiteSpace=wrap;html=1;" vertex="1" parent="1">
          <mxGeometry x="1580" y="250" width="120" height="60" as="geometry" />
        </mxCell>
        <mxCell id="Sdo2y6w5XIIUt7BQ4_8k-44" style="edgeStyle=orthogonalEdgeStyle;rounded=0;orthogonalLoop=1;jettySize=auto;html=1;entryX=0;entryY=0.5;entryDx=0;entryDy=0;" edge="1" parent="1" source="Sdo2y6w5XIIUt7BQ4_8k-42" target="Sdo2y6w5XIIUt7BQ4_8k-43">
          <mxGeometry relative="1" as="geometry" />
        </mxCell>
        <mxCell id="Sdo2y6w5XIIUt7BQ4_8k-42" value="Unir notificacion" style="rhombus;whiteSpace=wrap;html=1;" vertex="1" parent="1">
          <mxGeometry x="1810" y="370" width="50" height="50" as="geometry" />
        </mxCell>
        <mxCell id="Sdo2y6w5XIIUt7BQ4_8k-48" style="edgeStyle=orthogonalEdgeStyle;rounded=0;orthogonalLoop=1;jettySize=auto;html=1;entryX=0;entryY=0.5;entryDx=0;entryDy=0;" edge="1" parent="1" source="Sdo2y6w5XIIUt7BQ4_8k-43" target="Sdo2y6w5XIIUt7BQ4_8k-47">
          <mxGeometry relative="1" as="geometry" />
        </mxCell>
        <mxCell id="Sdo2y6w5XIIUt7BQ4_8k-43" value="Notificar Resolucion" style="rounded=1;whiteSpace=wrap;html=1;" vertex="1" parent="1">
          <mxGeometry x="1990" y="365" width="120" height="60" as="geometry" />
        </mxCell>
        <mxCell id="Sdo2y6w5XIIUt7BQ4_8k-47" value="" style="ellipse;whiteSpace=wrap;html=1;aspect=fixed;fillColor=#f8cecc;strokeColor=#b85450;" vertex="1" parent="1">
          <mxGeometry x="2280" y="370" width="50" height="50" as="geometry" />
        </mxCell>
      </root>
    </mxGraphModel>
  </diagram>
</mxfile>
